# xmcd
#
# Track frame offsets: 
#        150
#        14246
#        24707
#        38256
#        50087
#        62419
#        73678
#        87270
#        101580
#        116985
#        130843
#        143805
#        157309
#        167449
#        180413
#        189953
#        201059
#        214583
#        229168
#        241451
#        253597
#        266481
#
# Disc length: 3705 seconds
#
# Revision: 1
# Processed by: cddbd v1.5.2PL0 Copyright (c) Steve Scherf et al.
# Submitted via: ExactAudioCopy v1.0b3
#
DISCID=380e7716
DTITLE=Delmore Brothers, The - Classic Cuts - 1933-41
DYEAR=2004
DGENRE=Hillbilly
TTITLE0=I Ain't Got Nowhere To Travel 
TTITLE1=Smokey Mountain Bill And His Song 
TTITLE2=Gonna Lay Down My Old Guitar 
TTITLE3=Lonesome Yodel Blues
TTITLE4=Brown's Ferry Blues 
TTITLE5=I'm Mississippi Bound 
TTITLE6=I've Got The Big River Blues
TTITLE7=The Girls Don't Worry My Mind
TTITLE8=Bury Me Out On The Prairie 
TTITLE9=The Frozen Girl 
TTITLE10=Lonesome Jailhouse Blues 
TTITLE11=Blue Railroad Train
TTITLE12=When It's Summertime In A Southern Clime
TTITLE13=Blow Yo' Whistle Freight Train 
TTITLE14=Down South 
TTITLE15=Brown's Ferry Blues - Part 2
TTITLE16=I Got The Kansas City Blues 
TTITLE17=Alabama Lullaby 
TTITLE18=The Fugitive's Lament 
TTITLE19=I'm Going Away 
TTITLE20=I Long To See My Mother 
TTITLE21=Lorena, The Slave 
EXTD=YEAR: 2004
EXTT0=
EXTT1=
EXTT2=
EXTT3=
EXTT4=
EXTT5=
EXTT6=
EXTT7=
EXTT8=
EXTT9=
EXTT10=
EXTT11=
EXTT12=
EXTT13=
EXTT14=
EXTT15=
EXTT16=
EXTT17=
EXTT18=
EXTT19=
EXTT20=
EXTT21=
PLAYORDER=
